<?xml version="1.0" encoding="utf-8"?>
<!-- Generator: Adobe Illustrator 26.0.1, SVG Export Plug-In . SVG Version: 6.00 Build 0)  -->
<svg version="1.1" id="Layer_1" xmlns="http://www.w3.org/2000/svg" xmlns:xlink="http://www.w3.org/1999/xlink" x="0px" y="0px"
	 viewBox="0 0 1048.8 442.2" style="enable-background:new 0 0 1048.8 442.2;" xml:space="preserve">
<style type="text/css">
	.st0{fill:#001965;}
</style>
<path class="st0" d="M69.4,58.9h8.3l1.8,11.2c6.1-5.3,18.6-13.4,32.4-13.4c14,0,25.6,7.5,25.6,27.8v68.3h-10.1V84.1
	c0-13.2-8.1-19-17.8-19c-10.5,0-23.2,7.5-30,13.2v74.3H69.4V58.9z M154.8,105.6c0-31.6,17.7-48.9,41.2-48.9s41.4,17.3,41.4,48.9
	c0,32.8-18.2,49.3-41.4,49.3S154.8,138.4,154.8,105.6z M227.3,105.8C227.3,81,213.8,65,196,65s-31.1,16-31.1,40.8
	c0,23.6,11.4,40.8,31.1,40.8C214.6,146.7,227.3,129.4,227.3,105.8z M244.4,58.9h11.2l31.5,81.3h0.4l30.9-81.3h11l-37,93.8h-11
	L244.4,58.9z M336.6,105.6c0-31.6,17.7-48.9,41.2-48.9s41.4,17.3,41.4,48.9c0,32.8-18.2,49.3-41.4,49.3S336.6,138.4,336.6,105.6z
	 M409.1,105.8c0-24.8-13.4-40.8-31.3-40.8s-31.1,16-31.1,40.8c0,23.6,11.4,40.8,31.1,40.8C396.4,146.7,409.1,129.4,409.1,105.8z
	 M472.3,58.9h8.3l1.8,11.2c6.1-5.3,18.6-13.4,32.4-13.4c14,0,25.6,7.5,25.6,27.8v68.3h-10.1V84.1c0-13.2-8.1-19-17.8-19
	c-10.5,0-23.2,7.5-30,13.2v74.3h-10.1V58.9z M557.7,105.6c0-31.6,17.7-48.9,41.2-48.9s41.4,17.3,41.4,48.9
	c0,32.8-18.2,49.3-41.4,49.3S557.7,138.4,557.7,105.6z M630.2,105.8c0-24.8-13.4-40.8-31.3-40.8s-31.1,16-31.1,40.8
	c0,23.6,11.4,40.8,31.1,40.8C617.5,146.7,630.2,129.4,630.2,105.8z M659.6,58.9h8.3l1.7,15.5c4.6-7.7,17.3-17.7,32-17.7v12.1
	c-0.9-0.2-3.5-0.4-5.3-0.4c-13.2,0-22.4,9.4-26.5,14.5v69.7h-10.1V58.9z M709.5,107.7c0-32.9,20.8-51,45.4-51
	c11.8,0,21.7,3.9,25.8,6.3V25.8h10.1v127h-8.3l-1.7-8.1C777,147.8,767.6,155,752,155C730.3,155,709.5,141.9,709.5,107.7z
	 M780.7,135.6V71.8c-5.5-3.1-16-6.8-25.6-6.8c-20.6,0-35.5,17.7-35.5,42.9c0,29.4,18,38.8,34,38.8
	C766.5,146.7,776.8,138.9,780.7,135.6z M811.8,32c0-4.8,4-8.8,8.8-8.8c4.8,0,8.8,4,8.8,8.8s-4,8.8-8.8,8.8
	C815.9,40.9,811.8,36.8,811.8,32z M815.7,58.9h10.1v93.8h-10.1V58.9z M847,148.3v-8.5h4.6c6.6,3.1,16.2,6.8,24.5,6.8
	c10.5,0,21.5-5,21.5-16.4c0-22.6-49.9-19.3-49.9-48.4c0-16,15.6-25.2,31.3-25.2c9.6,0,20.2,2.9,25.2,6.1v8.5h-4.4
	c-5.7-2.9-13.1-6.3-21.3-6.3c-10.3,0-20.6,5.3-20.6,15.8c0,22.6,49.9,18.8,49.9,48.4c0,16.7-16.6,25.8-32.6,25.8
	C865.5,155,851.6,151.6,847,148.3z M924.8,25.8h10.1v78l42-44.9h11.6l-32.8,34.4l36.1,59.4h-12.3l-30.4-52.4l-14.2,15.1v37.4h-10.1
	V25.8z M69.4,236.1H56.7v-18.2h12.7v-7.7c0-22.8,15.6-28,30.9-28c4.6,0,9.6,0.6,12.7,1.7v17.7c-2-0.7-5.9-1.3-8.8-1.3
	c-5.3,0-10.7,1.5-10.7,10.5v7.2h16.7v18.2H93.5v75.6H69.4L69.4,236.1z M117.6,264.8c0-31.8,19-49.1,44.3-49.1
	c25.2,0,44.5,17.3,44.5,48.9c0,32.8-19.7,49.3-44.5,49.3C136.9,314,117.6,297.4,117.6,264.8z M182.2,265c0-19-8.6-31.1-20.2-31.1
	s-20.2,12-20.2,30.7c0,17.8,7.4,30.9,20.2,30.9C174.1,295.6,182.2,282.7,182.2,265z M221.6,217.9h21.2l1.8,10.1
	c5-4.8,15.5-12.3,26.9-12.3c14.9,0,27,8.1,27,30v66.1h-24.3V247c0-8.6-5.2-12.3-11.2-12.3c-5.9,0-13.2,4.2-17.1,7.5v69.6h-24.3
	V217.9z M313.4,266.7c0-32.9,19.1-51,41.8-51c8.6,0,15.8,2.9,18.8,4.8v-35.7h24.3v127h-21.7l-1.8-7.9C371.3,307,363.2,314,350,314
	C331.2,314,313.4,300.9,313.4,266.7z M373.9,290v-52.3c-3.1-1.8-8.6-3.9-14-3.9c-13.1,0-22.3,13.1-22.3,31.8
	c0,22.6,11.2,29.8,21.3,29.8C366.2,295.6,371.7,291.7,373.9,290z M413.8,264.8c0-33.7,19.1-49.1,41.4-49.1
	c22.3,0,37.2,16.2,37.2,43.1v11h-54.3v1.7c0,14.7,9.4,24.1,23.9,24.1c7.7,0,15.5-3.3,20.6-6.4h8.1v18.6c-5,2-18.6,6.3-32.8,6.3
	C428.7,314,413.8,296.5,413.8,264.8z M470,254.5v-2.4c0-11.2-6.8-18.2-15.5-18.2c-8.6,0-16.4,7.7-16.4,19v1.7H470z M511,217.9h21.2
	L534,228c5-4.8,15.5-12.3,26.9-12.3c14.9,0,27,8.1,27,30v66.1h-24.3V247c0-8.6-5.2-12.3-11.2-12.3c-5.9,0-13.2,4.2-17.1,7.5v69.6
	H511V217.9z M69.4,355.5h8.5c5.7,0,9.3,2.1,9.3,6.9c0,3.9-2.4,5.8-5,6.4v0.1c3.1,0.6,6.3,2.9,6.3,6.8c0,5.8-5.2,8-10.2,8h-8.9V355.5
	z M77.7,367.6c3.2,0,5.6-1.5,5.6-4.7c0-3-2.3-4.3-5.2-4.3h-4.8v9H77.7z M78.5,380.5c3.3,0,6-1.8,6-4.9c0-3.6-3.5-5-6.6-5h-4.6v9.9
	H78.5z M91.7,373.2c0-7.4,4.1-10.9,8.9-10.9c4.8,0,8,3.5,8,9.4v2.3h-13v0.2c0,4.3,2.5,7,6.3,7c1.9,0,3.7-0.8,5-1.5h1.4v3
	c-1,0.5-3.9,1.4-6.9,1.4C95,384.2,91.7,380.3,91.7,373.2z M105,371.3v-0.6c0-3.3-2-5.4-4.5-5.4c-2.6,0-4.9,2.3-4.9,5.7v0.2H105z
	 M113.6,362.8h3.3l0.4,2.4c1.2-1.1,3.8-2.9,6.6-2.9c3.2,0,5.8,1.8,5.8,6.4v15h-3.8v-14.9c0-2.4-1.5-3.4-3.2-3.4
	c-1.8,0-4.1,1.3-5.2,2.3v16h-3.8V362.8z M134,373.2c0-7.4,4.1-10.9,8.9-10.9c4.8,0,8,3.5,8,9.4v2.3h-13v0.2c0,4.3,2.5,7,6.3,7
	c1.9,0,3.7-0.8,5-1.5h1.4v3c-1,0.5-3.9,1.4-6.9,1.4C137.3,384.2,134,380.3,134,373.2z M147.3,371.3v-0.6c0-3.3-2-5.4-4.5-5.4
	c-2.6,0-4.9,2.3-4.9,5.7v0.2H147.3z M157.2,365.8h-2.8v-3h2.8v-2.1c0-4.8,3-5.9,6-5.9c0.9,0,2,0.1,2.7,0.4v2.9
	c-0.5-0.2-1.5-0.3-2.3-0.3c-1.3,0-2.6,0.4-2.6,3.1v1.9h3.9v3H161v17.9h-3.8V365.8z M169.2,357.2c0-1.4,1.1-2.5,2.5-2.5
	c1.4,0,2.5,1.1,2.5,2.5s-1.1,2.5-2.5,2.5C170.4,359.7,169.2,358.6,169.2,357.2z M169.9,362.8h3.8v20.9h-3.8V362.8z M180.3,378v-12.1
	h-2.5v-2.5c2.5-0.2,3.2-1.6,3.5-4.9h2.8v4.4h5.1v3h-5.1v11.9c0,2.2,1.1,3.4,2.7,3.4c0.9,0,1.8-0.3,2.4-0.5v2.8
	c-1.1,0.4-2.2,0.6-3.6,0.6C182.7,384,180.3,382.2,180.3,378z M193.7,378v-12.1h-2.5v-2.5c2.5-0.2,3.2-1.6,3.5-4.9h2.8v4.4h5.1v3
	h-5.1v11.9c0,2.2,1.1,3.4,2.7,3.4c0.9,0,1.8-0.3,2.4-0.5v2.8c-1.1,0.4-2.2,0.6-3.6,0.6C196.1,384,193.7,382.2,193.7,378z M206,357.2
	c0-1.4,1.1-2.5,2.5-2.5c1.4,0,2.5,1.1,2.5,2.5s-1.1,2.5-2.5,2.5C207.2,359.7,206,358.6,206,357.2z M206.7,362.8h3.8v20.9h-3.8V362.8
	z M216.4,362.8h3.3l0.4,2.4c1.2-1.1,3.8-2.9,6.6-2.9c3.2,0,5.8,1.8,5.8,6.4v15h-3.8v-14.9c0-2.4-1.5-3.4-3.2-3.4
	c-1.8,0-4.1,1.3-5.2,2.3v16h-3.8V362.8z M235.8,387.8c0-2.2,1.6-3.8,3.2-4.9c-1.1-0.6-1.6-1.7-1.6-2.8c0-1.5,0.9-3.2,2.6-4.3
	c-1.8-1.2-2.9-3.3-2.9-5.9c0-4.7,3.5-7.6,7.7-7.6c1.1,0,2.2,0.2,3.1,0.5h6.9v2.9h-3.6v0.1c0.9,1.1,1.4,2.4,1.4,4.2
	c0,4.5-3.5,7.3-7.7,7.3c-0.9,0-1.9-0.1-2.7-0.4c-0.7,0.5-1.4,1.4-1.4,2.3c0,0.8,0.5,1.5,2,1.5h5.1c4.5,0,6.4,2.3,6.4,5.6
	c0,4.7-4.1,7.4-9.8,7.4C239.1,393.6,235.8,391.1,235.8,387.8z M250.6,386.7c0-2-1.6-3-4.3-3h-5c-1,0.7-2.2,1.9-2.2,3.5
	c0,2.1,2.2,3.6,5.6,3.6C248.6,390.8,250.6,389,250.6,386.7z M249,369.9c0-2.6-1.6-4.7-4.1-4.7s-4.2,2.1-4.2,4.8
	c0,2.6,1.7,4.6,4.2,4.6S249,372.6,249,369.9z M267.3,362.8h3.4l0.4,1.6c0.9-0.7,3-2.1,6-2.1c5.2,0,8.6,3.6,8.6,10.2
	c0,7.8-4.8,11.7-10.1,11.7c-1.8,0-3.7-0.5-4.5-0.8v9.7h-3.8V362.8z M271.1,380.3c0.8,0.4,2.5,1,4.3,1c3.1,0,6.4-3.3,6.4-8.4
	c0-5.2-3-7.5-6-7.5c-2.1,0-3.9,1-4.7,1.6V380.3z M289.3,373.2c0-7.4,4.1-10.9,8.9-10.9c4.8,0,8,3.5,8,9.4v2.3h-13v0.2
	c0,4.3,2.5,7,6.3,7c1.9,0,3.7-0.8,5-1.5h1.4v3c-1,0.5-3.9,1.4-6.9,1.4C292.5,384.2,289.3,380.3,289.3,373.2z M302.6,371.3v-0.6
	c0-3.3-2-5.4-4.5-5.4c-2.6,0-4.9,2.3-4.9,5.7v0.2H302.6z M310,373.3c0-7.1,4.1-10.9,9.6-10.9c5.5,0,9.6,3.9,9.6,10.9
	c0,7.3-4.2,11-9.6,11C314.2,384.2,310,380.5,310,373.3z M325.3,373.3c0-4.9-2.5-8-5.7-8c-3.3,0-5.7,3.1-5.7,7.9c0,4.6,2.1,8,5.7,8
	C323,381.2,325.3,377.9,325.3,373.3z M333.5,362.8h3.4l0.4,1.6c0.9-0.7,3-2.1,6-2.1c5.2,0,8.6,3.6,8.6,10.2
	c0,7.8-4.8,11.7-10.1,11.7c-1.8,0-3.7-0.5-4.5-0.8v9.7h-3.8V362.8z M337.3,380.3c0.8,0.4,2.5,1,4.3,1c3.1,0,6.4-3.3,6.4-8.4
	c0-5.2-3-7.5-6-7.5c-2.1,0-3.9,1-4.7,1.6V380.3z M356.5,355.5h3.8v28.3h-3.8V355.5z M365.2,373.2c0-7.4,4.1-10.9,8.9-10.9
	c4.8,0,8,3.5,8,9.4v2.3h-13v0.2c0,4.3,2.5,7,6.3,7c1.9,0,3.7-0.8,5-1.5h1.4v3c-1,0.5-3.9,1.4-6.9,1.4
	C368.4,384.2,365.2,380.3,365.2,373.2z M378.4,371.3v-0.6c0-3.3-2-5.4-4.5-5.4c-2.6,0-4.9,2.3-4.9,5.7v0.2H378.4z M393.5,378.5
	c0-3.8,1.5-5.7,6.9-6.3l4.7-0.5v-2.3c0-2.8-2-4.1-4.3-4.1c-1.5,0-3.4,0.6-4.6,1.4H395v-3.1c1.4-0.5,3.9-1.2,6.7-1.2
	c4.8,0,7.3,2.4,7.3,7.1v14.3h-3.5l-0.2-1.9c-1.1,1.1-3.5,2.4-5.9,2.4C396.4,384.2,393.5,382.4,393.5,378.5z M405.2,379.6v-5
	c-0.8-0.1-2-0.1-2.7-0.1c-3.6,0-5.2,1.3-5.2,3.6c0,1.7,1.2,3.3,3.6,3.3C402.3,381.4,404.2,380.5,405.2,379.6z M414.6,362.8h3.3
	l0.4,2.4c1.2-1.1,3.8-2.9,6.6-2.9c3.2,0,5.8,1.8,5.8,6.4v15h-3.8v-14.9c0-2.4-1.5-3.4-3.2-3.4c-1.8,0-4.1,1.3-5.2,2.3v16h-3.8V362.8
	z M434.8,373.7c0-7.3,4.4-11.4,9.7-11.4c2.3,0,4.2,0.8,5,1.2v-8.1h3.9v28.3h-3.4l-0.4-1.8c-0.8,0.7-2.7,2.3-5.9,2.3
	C439.1,384.2,434.8,381.3,434.8,373.7z M449.4,379.4v-12.9c-0.9-0.5-2.7-1.1-4.4-1.1c-3.7,0-6.4,3.4-6.4,8.3c0,5.8,3.2,7.6,6.2,7.6
	C447,381.2,448.8,379.9,449.4,379.4z M465.4,382.8v-3h1.4c1.3,0.7,3.2,1.5,4.8,1.5c1.8,0,3.8-0.9,3.8-2.9c0-4.3-9.9-3.6-9.9-10
	c0-3.8,3.7-6,7.3-6c2.2,0,4.6,0.6,5.7,1.3v3h-1.4c-1.1-0.6-2.6-1.3-4.2-1.3c-1.8,0-3.6,0.9-3.6,2.7c0,4.3,9.9,3.5,9.9,10
	c0,4-3.9,6.2-7.6,6.2C469.5,384.2,466.5,383.5,465.4,382.8z M482.4,373.3c0-7.1,4.1-10.9,9.6-10.9c5.5,0,9.6,3.9,9.6,10.9
	c0,7.3-4.2,11-9.6,11C486.6,384.2,482.4,380.5,482.4,373.3z M497.7,373.3c0-4.9-2.5-8-5.7-8c-3.3,0-5.7,3.1-5.7,7.9
	c0,4.6,2.1,8,5.7,8C495.4,381.2,497.7,377.9,497.7,373.3z M505.3,373.7c0-7,4.8-11.3,10.4-11.3c2.3,0,4.3,0.7,5.1,1.2v3.1h-1.4
	c-0.8-0.5-2.3-1.3-3.9-1.3c-3.1,0-6.4,3-6.4,7.9c0,4.9,3,7.9,6.3,7.9c1.6,0,3-0.7,3.9-1.4h1.4v3c-0.9,0.5-3.2,1.4-5.7,1.4
	C510.2,384.2,505.3,380.8,505.3,373.7z M525.3,357.2c0-1.4,1.1-2.5,2.5-2.5c1.4,0,2.5,1.1,2.5,2.5s-1.1,2.5-2.5,2.5
	C526.4,359.7,525.3,358.6,525.3,357.2z M525.9,362.8h3.8v20.9h-3.8V362.8z M534.8,373.2c0-7.4,4.1-10.9,8.9-10.9c4.8,0,8,3.5,8,9.4
	v2.3h-13v0.2c0,4.3,2.5,7,6.3,7c1.9,0,3.7-0.8,5-1.5h1.4v3c-1,0.5-3.9,1.4-6.9,1.4C538,384.2,534.8,380.3,534.8,373.2z M548,371.3
	v-0.6c0-3.3-2-5.4-4.5-5.4c-2.6,0-4.9,2.3-4.9,5.7v0.2H548z M557,378v-12.1h-2.5v-2.5c2.5-0.2,3.2-1.6,3.5-4.9h2.8v4.4h5.1v3h-5.1
	v11.9c0,2.2,1.1,3.4,2.7,3.4c0.9,0,1.8-0.3,2.4-0.5v2.8c-1.1,0.4-2.2,0.6-3.6,0.6C559.4,384,557,382.2,557,378z M568.7,392.8v-3.3
	h1.4c0.7,0.5,1.3,0.8,2.1,0.8c1.9,0,2.7-1.6,3.6-3.8l1.1-2.8h-1.5l-6.9-20.9h3.9l5.5,17.7h0.1l5.9-17.7h3.9l-8.8,24.4
	c-1.8,4.4-3.8,6.4-6.6,6.4C571.4,393.6,569.8,393.4,568.7,392.8z"/>
</svg>
