<?xml version="1.0" encoding="UTF-8" standalone="no"?>
<!-- Created with Inkscape (http://www.inkscape.org/) -->

<svg width="48" height="48" viewBox="0 0 12.7 12.7" version="1.1" id="svg1" inkscape:version="1.4 (e7c3feb1, 2024-10-09)" sodipodi:docname="reference_molecule.svg" xmlns:inkscape="http://www.inkscape.org/namespaces/inkscape" xmlns:sodipodi="http://sodipodi.sourceforge.net/DTD/sodipodi-0.dtd" xmlns="http://www.w3.org/2000/svg" xmlns:svg="http://www.w3.org/2000/svg">
  <sodipodi:namedview id="namedview1" pagecolor="#ffffff" bordercolor="#666666" borderopacity="1.0" inkscape:showpageshadow="2" inkscape:pageopacity="0.0" inkscape:pagecheckerboard="0" inkscape:deskcolor="#d1d1d1" inkscape:document-units="mm" inkscape:zoom="5.12" inkscape:cx="13.28125" inkscape:cy="49.316406" inkscape:window-width="1920" inkscape:window-height="1027" inkscape:window-x="0" inkscape:window-y="25" inkscape:window-maximized="1" inkscape:current-layer="layer1" />
  <defs id="defs1">
    <clipPath clipPathUnits="userSpaceOnUse" id="clipPath12">
      <rect style="fill:#808080;fill-opacity:1;stroke:none;stroke-width:0.683063;stroke-linecap:square;stroke-dasharray:none;stroke-opacity:1;paint-order:stroke markers fill" id="rect13" width="13.591492" height="4.6360493" x="-2.3358941" y="4.1737552" />
    </clipPath>
  </defs>
  <g inkscape:label="Layer 1" inkscape:groupmode="layer" id="layer1">
    <g id="g9" transform="matrix(0.84339786,0,0,0.84306645,-0.09439416,-1.0551312)" style="stroke-width:1.18591;opacity:0.5">
      <circle style="fill:none;stroke:#0082ff;stroke-width:0.627546;stroke-linecap:square;stroke-dasharray:none;stroke-dashoffset:0;stroke-opacity:1;paint-order:fill markers stroke" id="circle1" cx="2.6541622" cy="4.4100604" r="1.7904969" />
      <circle style="fill:none;stroke:#0082ff;stroke-width:0.627545;stroke-linecap:square;stroke-dasharray:none;stroke-dashoffset:0;stroke-opacity:1;paint-order:fill markers stroke" id="circle2" cx="8.3660479" cy="7.5126519" r="2.9780715" />
      <path style="fill:none;stroke:#0082ff;stroke-width:0.470659;stroke-linecap:butt;stroke-linejoin:miter;stroke-dasharray:none;stroke-opacity:1" d="M 5.5435915,6.550097 4.1000285,5.7054245" id="path2" sodipodi:nodetypes="cc" />
      <g id="g1" transform="matrix(0.57431883,0.81881199,-0.81856395,0.57415847,9.5382741,-3.062707)" style="stroke-width:1.18591">
        <circle style="fill:none;stroke:#0082ff;stroke-width:0.627546;stroke-linecap:square;stroke-dasharray:none;stroke-dashoffset:0;stroke-opacity:1;paint-order:fill markers stroke" id="path1" cx="10.530364" cy="2.1030383" r="0.85870773" />
        <path style="fill:none;stroke:#0082ff;stroke-width:0.470659;stroke-linecap:butt;stroke-linejoin:miter;stroke-dasharray:none;stroke-opacity:1" d="M 9.3572824,4.689321 10.159246,2.9644539" id="path3" sodipodi:nodetypes="cc" />
      </g>
      <path style="fill:none;stroke:#0082ff;stroke-width:0.470659;stroke-linecap:butt;stroke-linejoin:miter;stroke-dasharray:none;stroke-opacity:1" d="M 5.9177289,5.6984692 4.4741659,4.8537972" id="path6" sodipodi:nodetypes="cc" />
      <g id="g8" transform="rotate(-88.427,5.9502819,10.248638)" style="stroke-width:1.18591">
        <circle style="fill:none;stroke:#0082ff;stroke-width:0.627546;stroke-linecap:square;stroke-dasharray:none;stroke-dashoffset:0;stroke-opacity:1;paint-order:fill markers stroke" id="circle6" cx="2.8379774" cy="9.5791359" r="1.7904969" />
        <path style="fill:none;stroke:#0082ff;stroke-width:0.470659;stroke-linecap:butt;stroke-linejoin:miter;stroke-dasharray:none;stroke-opacity:1" d="M 6.0374652,11.357437 4.5939022,10.512765" id="path7" sodipodi:nodetypes="cc" />
      </g>
    </g>
    <g id="g13" transform="matrix(0.29344408,-0.25458584,0.25309381,0.29172434,5.2533521,8.9649009)" style="stroke-width:2.58165">
      <path style="fill:#ff9600;fill-opacity:1;stroke:#ffffff;stroke-width:1.02459;stroke-linecap:square;stroke-dasharray:none;stroke-opacity:1;paint-order:stroke markers fill" d="m 2.572266,5.9980469 c -0.847832,0 -1.568801,0.3311806 -2.03711,0.84375 -0.4683086,0.5125694 -0.6914056,1.1766434 -0.6914056,1.8300781 0,0.6534347 0.223097,1.3155556 0.6914056,1.828125 0.468309,0.512569 1.189278,0.84375 2.03711,0.84375 h 3.960937 c 0.847832,0 1.570754,-0.331181 2.039063,-0.84375 C 9.040575,9.9874306 9.261719,9.3253097 9.261719,8.671875 9.261719,8.0184403 9.040575,7.3543663 8.572266,6.8417969 8.103957,6.3292275 7.381035,5.9980469 6.533203,5.9980469 Z m 0,1.3671875 h 3.960937 c 0.515556,0 0.815913,0.1648858 1.029297,0.3984375 0.213385,0.2335517 0.333984,0.5668096 0.333984,0.9082031 0,0.3413935 -0.120599,0.6726983 -0.333984,0.90625 C 7.349116,9.8116767 7.048759,9.9785156 6.533203,9.9785156 H 2.572266 C 2.05671,9.9785156 1.756353,9.8116767 1.542969,9.578125 1.329584,9.3445733 1.210938,9.0132685 1.210938,8.671875 1.210938,8.3304815 1.329584,7.9972236 1.542969,7.7636719 1.756353,7.5301202 2.05671,7.3652344 2.572266,7.3652344 Z" id="rect9" />
      <path style="fill:#ff9600;fill-opacity:1;stroke:#ffffff;stroke-width:1.02459;stroke-linecap:square;stroke-dasharray:none;stroke-opacity:1;paint-order:stroke markers fill" d="m 7.8393266,5.9980463 c -0.847832,0 -1.568801,0.3311813 -2.03711,0.8437503 -0.468309,0.512569 -0.691406,1.1766434 -0.691406,1.8300784 0,0.6534353 0.223097,1.3155563 0.691406,1.828126 0.468309,0.512569 1.189278,0.84375 2.03711,0.84375 h 3.9609424 c 0.847832,0 1.570754,-0.331181 2.039063,-0.84375 0.468308,-0.5125697 0.689452,-1.1746907 0.689452,-1.828126 0,-0.653435 -0.221144,-1.3175094 -0.689452,-1.8300784 -0.468309,-0.512569 -1.191231,-0.8437503 -2.039063,-0.8437503 z m 0,1.3671874 h 3.9609424 c 0.515556,0 0.815913,0.164886 1.029297,0.3984382 0.213385,0.2335521 0.333984,0.5668101 0.333984,0.9082031 0,0.341394 -0.120599,0.6726983 -0.333984,0.9062503 -0.213384,0.233552 -0.513741,0.400391 -1.029297,0.400391 H 7.8393266 c -0.515556,0 -0.815913,-0.166839 -1.029297,-0.400391 -0.213385,-0.233552 -0.332031,-0.5648563 -0.332031,-0.9062503 0,-0.341393 0.118646,-0.674651 0.332031,-0.9082031 0.213384,-0.2335523 0.513741,-0.3984383 1.029297,-0.3984382 z" id="path11" />
      <path style="fill:#ff9600;fill-opacity:1;stroke:#ffffff;stroke-width:1.02459;stroke-linecap:square;stroke-dasharray:none;stroke-opacity:1;paint-order:stroke markers fill" d="m 2.572266,5.9980469 c -0.847832,0 -1.568801,0.3311806 -2.03711002,0.84375 -0.468309,0.5125694 -0.691406,1.1766434 -0.691406,1.8300781 0,0.6534347 0.223097,1.3155556 0.691406,1.828125 C 1.003465,11.012569 1.724434,11.34375 2.572266,11.34375 h 3.960937 c 0.847832,0 1.570754,-0.331181 2.039063,-0.84375 C 9.040575,9.9874306 9.261719,9.3253097 9.261719,8.671875 9.261719,8.0184403 9.040575,7.3543663 8.572266,6.8417969 8.103957,6.3292275 7.381035,5.9980469 6.533203,5.9980469 Z m 0,1.3671875 h 3.960937 c 0.515556,0 0.815913,0.1648858 1.029297,0.3984375 0.213385,0.2335517 0.333984,0.5668096 0.333984,0.9082031 0,0.3413935 -0.120599,0.6726983 -0.333984,0.90625 C 7.349116,9.8116767 7.048759,9.9785156 6.533203,9.9785156 H 2.572266 C 2.05671,9.9785156 1.756353,9.8116767 1.542969,9.578125 1.329584,9.3445733 1.210938,9.0132685 1.210938,8.671875 1.210938,8.3304815 1.329584,7.9972236 1.542969,7.7636719 1.756353,7.5301202 2.05671,7.3652344 2.572266,7.3652344 Z" id="path12" clip-path="url(#clipPath12)" />
    </g>
  </g>
</svg>
